<?xml version="1.0" encoding="UTF-8" standalone="no"?>
<!-- Created with Inkscape (http://www.inkscape.org/) -->

<svg
   xmlns:dc="http://purl.org/dc/elements/1.1/"
   xmlns:cc="http://creativecommons.org/ns#"
   xmlns:rdf="http://www.w3.org/1999/02/22-rdf-syntax-ns#"
   xmlns:svg="http://www.w3.org/2000/svg"
   xmlns="http://www.w3.org/2000/svg"
   xmlns:sodipodi="http://sodipodi.sourceforge.net/DTD/sodipodi-0.dtd"
   xmlns:inkscape="http://www.inkscape.org/namespaces/inkscape"
   width="512"
   height="512"
   viewBox="0 0 135.46666 135.46667"
   version="1.1"
   id="svg8"
   sodipodi:docname="logo.svg"
   inkscape:version="0.92.4 (5da689c313, 2019-01-14)">
  <defs
     id="defs2" />
  <sodipodi:namedview
     id="base"
     pagecolor="#ffffff"
     bordercolor="#666666"
     borderopacity="1.0"
     inkscape:pageopacity="0.0"
     inkscape:pageshadow="2"
     inkscape:zoom="1.4"
     inkscape:cx="298.59765"
     inkscape:cy="144.78987"
     inkscape:document-units="mm"
     inkscape:current-layer="layer1"
     showgrid="false"
     units="px"
     inkscape:snap-bbox="true"
     inkscape:snap-bbox-midpoints="true"
     inkscape:snap-global="false"
     inkscape:window-width="1920"
     inkscape:window-height="1043"
     inkscape:window-x="0"
     inkscape:window-y="18"
     inkscape:window-maximized="0" />
  <metadata
     id="metadata5">
    <rdf:RDF>
      <cc:Work
         rdf:about="">
        <dc:format>image/svg+xml</dc:format>
        <dc:type
           rdf:resource="http://purl.org/dc/dcmitype/StillImage" />
        <dc:title></dc:title>
      </cc:Work>
    </rdf:RDF>
  </metadata>
  <g
     inkscape:label="Layer 1"
     inkscape:groupmode="layer"
     id="layer1"
     transform="translate(0,-161.53332)">
    <rect
       style="opacity:0.98999999;fill:#ff0000;fill-opacity:1;stroke:none;stroke-width:1;stroke-miterlimit:4;stroke-dasharray:none;stroke-opacity:1"
       id="rect904"
       width="135.46666"
       height="135.46666"
       x="0"
       y="161.53339"
       ry="13.687721"
       rx="13.687721" />
    <g
       aria-label="bang"
       style="font-style:normal;font-weight:normal;font-size:42.93916702px;line-height:125%;font-family:Sans;letter-spacing:0px;word-spacing:0px;fill:#000000;fill-opacity:1;stroke:none;stroke-width:0.26458332px;stroke-linecap:butt;stroke-linejoin:miter;stroke-opacity:1"
       id="text821-2">
      <path
         d="m 32.232254,256.25989 q 3.09162,0 5.582092,1.54581 2.533411,1.54581 3.950403,4.29392 1.459932,2.70517 1.459932,6.05442 0,3.34926 -1.54581,6.09736 -1.54581,2.70517 -4.293917,4.29392 -2.705167,1.54581 -6.011483,1.54581 -3.306316,0 -6.011483,-1.54581 -2.662229,-1.58875 -4.250978,-4.29392 -1.54581,-2.7481 -1.54581,-6.09736 v -19.58026 q 0,-0.9876 0.601148,-1.58875 0.644088,-0.60115 1.58875,-0.60115 0.9876,0 1.588749,0.60115 0.601148,0.60115 0.601148,1.58875 v 11.59358 q 1.502871,-1.84639 3.649829,-2.87693 2.146959,-1.03054 4.63743,-1.03054 z m -0.858783,19.96671 q 2.146958,0 3.864525,-1.03054 1.760506,-1.07347 2.748107,-2.91986 1.03054,-1.84638 1.03054,-4.12216 0,-2.27578 -1.03054,-4.07922 -0.987601,-1.84638 -2.748107,-2.87692 -1.717567,-1.07348 -3.864525,-1.07348 -2.146958,0 -3.907464,1.07348 -1.717567,1.03054 -2.705168,2.87692 -0.987601,1.80344 -0.987601,4.07922 0,2.27578 0.987601,4.12216 0.987601,1.84639 2.705168,2.91986 1.760506,1.03054 3.907464,1.03054 z"
         style="font-style:normal;font-variant:normal;font-weight:bold;font-stretch:normal;font-family:Comfortaa;-inkscape-font-specification:'Comfortaa Bold';fill:#000000;stroke-width:0.26458332px"
         id="path976" />
      <path
         d="m 60.405716,256.25989 q 3.306316,0 5.968544,1.58875 2.705168,1.54581 4.250978,4.29392 1.588749,2.70516 1.588749,6.05442 v 9.57543 q 0,0.94467 -0.644087,1.58875 -0.601149,0.60115 -1.54581,0.60115 -0.944662,0 -1.58875,-0.60115 -0.601148,-0.64408 -0.601148,-1.58875 v -1.58874 q -1.502871,1.84638 -3.649829,2.87692 -2.146958,1.03054 -4.63743,1.03054 -3.09162,0 -5.625031,-1.54581 -2.490472,-1.54581 -3.950403,-4.25098 -1.416993,-2.74811 -1.416993,-6.09736 0,-3.34926 1.54581,-6.05442 1.54581,-2.74811 4.250978,-4.29392 2.748106,-1.58875 6.054422,-1.58875 z m 0,19.96671 q 2.146959,0 3.864525,-1.03054 1.760506,-1.07347 2.748107,-2.87692 0.987601,-1.84638 0.987601,-4.12216 0,-2.27578 -0.987601,-4.12216 -0.987601,-1.84638 -2.748107,-2.87692 -1.717566,-1.07348 -3.864525,-1.07348 -2.146958,0 -3.907464,1.07348 -1.717567,1.03054 -2.748107,2.87692 -0.987601,1.84638 -0.987601,4.12216 0,2.27578 0.987601,4.12216 1.03054,1.80345 2.748107,2.87692 1.760506,1.03054 3.907464,1.03054 z"
         style="font-style:normal;font-variant:normal;font-weight:bold;font-stretch:normal;font-family:Comfortaa;-inkscape-font-specification:'Comfortaa Bold';fill:#000000;stroke-width:0.26458332px"
         id="path978" />
      <path
         d="m 90.453741,256.21695 q 2.962802,0 5.324457,1.28818 2.361654,1.28817 3.692768,3.77864 1.331114,2.44754 1.331114,5.92561 v 10.56303 q 0,0.94467 -0.64409,1.58875 -0.601146,0.60115 -1.545807,0.60115 -0.944662,0 -1.58875,-0.60115 -0.601148,-0.64408 -0.601148,-1.58875 v -10.56303 q 0,-3.47807 -1.889323,-5.23858 -1.846384,-1.80344 -4.938004,-1.80344 -1.803446,0 -3.306316,0.72996 -1.459932,0.72997 -2.318715,1.9752 -0.815845,1.24524 -0.815845,2.79105 v 12.10884 q 0,0.94467 -0.601148,1.58875 -0.601148,0.60115 -1.588749,0.60115 -0.944662,0 -1.588749,-0.60115 -0.601149,-0.64408 -0.601149,-1.58875 v -19.15086 q 0,-0.98761 0.601149,-1.58875 0.644087,-0.60115 1.588749,-0.60115 0.987601,0 1.588749,0.60115 0.601148,0.60114 0.601148,1.58875 v 0.47233 q 1.374054,-1.37406 3.263377,-2.10402 1.889323,-0.77291 4.036282,-0.77291 z"
         style="font-style:normal;font-variant:normal;font-weight:bold;font-stretch:normal;font-family:Comfortaa;-inkscape-font-specification:'Comfortaa Bold';fill:#000000;stroke-width:0.26458332px"
         id="path980" />
      <path
         d="m 118.69228,256.25989 q 3.39219,0 6.05442,1.54581 2.70517,1.50287 4.20804,4.20804 1.54581,2.70517 1.54581,6.18324 v 9.27486 q 0,3.39219 -1.50287,6.18324 -1.50287,2.79105 -4.25098,4.3798 -2.70517,1.63168 -6.1403,1.63168 -3.09162,0 -5.75385,-1.24523 -2.66223,-1.2023 -4.46567,-3.47807 -0.47233,-0.60115 -0.47233,-1.2023 0,-0.90172 0.90172,-1.54581 0.60115,-0.38645 1.2023,-0.38645 1.07348,0 1.7605,0.90172 1.15936,1.50287 2.91987,2.27577 1.7605,0.81585 3.99334,0.81585 2.10402,0 3.82158,-1.03054 1.71757,-0.9876 2.74811,-2.9628 1.03054,-1.93227 1.03054,-4.63743 v -2.10402 q -1.33111,2.36165 -3.52101,3.69277 -2.1899,1.33111 -4.93801,1.33111 -3.17749,0 -5.7109,-1.50287 -2.49048,-1.54581 -3.90747,-4.25098 -1.37405,-2.70517 -1.37405,-6.1403 0,-3.47807 1.50287,-6.18324 1.50287,-2.70517 4.20804,-4.20804 2.70516,-1.54581 6.1403,-1.54581 z m 0,19.96671 q 2.1899,0 3.90746,-1.03054 1.76051,-1.03054 2.70517,-2.83398 0.9876,-1.84639 0.9876,-4.1651 0,-2.31872 -0.9876,-4.1651 -0.94466,-1.84638 -2.70517,-2.87692 -1.71756,-1.03054 -3.90746,-1.03054 -2.1899,0 -3.95041,1.03054 -1.71756,1.03054 -2.70516,2.87692 -0.9876,1.84638 -0.9876,4.1651 0,2.31871 0.9876,4.1651 0.9876,1.80344 2.70516,2.83398 1.76051,1.03054 3.95041,1.03054 z"
         style="font-style:normal;font-variant:normal;font-weight:bold;font-stretch:normal;font-family:Comfortaa;-inkscape-font-specification:'Comfortaa Bold';fill:#000000;stroke-width:0.26458332px"
         id="path982" />
    </g>
    <g
       aria-label="bang"
       style="font-style:normal;font-weight:normal;font-size:42.93917084px;line-height:125%;font-family:Sans;letter-spacing:0px;word-spacing:0px;fill:#ffffff;fill-opacity:1;stroke:none;stroke-width:0.26458332px;stroke-linecap:butt;stroke-linejoin:miter;stroke-opacity:1"
       id="text821-2-6">
      <path
         d="m 32.232246,258.52759 q 3.091621,0 5.582092,1.54581 2.533412,1.54581 3.950404,4.29392 1.459932,2.70516 1.459932,6.05442 0,3.34926 -1.54581,6.09736 -1.54581,2.70517 -4.293917,4.29392 -2.705168,1.54581 -6.011484,1.54581 -3.306316,0 -6.011484,-1.54581 -2.662229,-1.58875 -4.250978,-4.29392 -1.54581,-2.7481 -1.54581,-6.09736 v -19.58026 q 0,-0.9876 0.601148,-1.58875 0.644088,-0.60115 1.58875,-0.60115 0.9876,0 1.588749,0.60115 0.601148,0.60115 0.601148,1.58875 v 11.59357 q 1.502871,-1.84638 3.64983,-2.87692 2.146958,-1.03054 4.63743,-1.03054 z m -0.858783,19.96671 q 2.146958,0 3.864525,-1.03054 1.760506,-1.07348 2.748107,-2.91986 1.03054,-1.84638 1.03054,-4.12216 0,-2.27578 -1.03054,-4.07922 -0.987601,-1.84639 -2.748107,-2.87693 -1.717567,-1.07348 -3.864525,-1.07348 -2.146959,0 -3.907465,1.07348 -1.717567,1.03054 -2.705167,2.87693 -0.987601,1.80344 -0.987601,4.07922 0,2.27578 0.987601,4.12216 0.9876,1.84638 2.705167,2.91986 1.760506,1.03054 3.907465,1.03054 z"
         style="font-style:normal;font-variant:normal;font-weight:bold;font-stretch:normal;font-family:Comfortaa;-inkscape-font-specification:'Comfortaa Bold';fill:#ffffff;stroke-width:0.26458332px"
         id="path967" />
      <path
         d="m 60.40571,258.52759 q 3.306316,0 5.968545,1.58875 2.705167,1.54581 4.250977,4.29392 1.58875,2.70516 1.58875,6.05442 v 9.57543 q 0,0.94467 -0.644088,1.58875 -0.601148,0.60115 -1.54581,0.60115 -0.944662,0 -1.588749,-0.60115 -0.601149,-0.64408 -0.601149,-1.58875 v -1.58875 q -1.502871,1.84639 -3.649829,2.87693 -2.146959,1.03054 -4.637431,1.03054 -3.09162,0 -5.625031,-1.54581 -2.490472,-1.54581 -3.950404,-4.25098 -1.416992,-2.74811 -1.416992,-6.09736 0,-3.34926 1.54581,-6.05442 1.54581,-2.74811 4.250978,-4.29392 2.748107,-1.58875 6.054423,-1.58875 z m 0,19.96671 q 2.146958,0 3.864525,-1.03054 1.760506,-1.07348 2.748107,-2.87692 0.987601,-1.84638 0.987601,-4.12216 0,-2.27578 -0.987601,-4.12216 -0.987601,-1.84639 -2.748107,-2.87693 -1.717567,-1.07348 -3.864525,-1.07348 -2.146959,0 -3.907465,1.07348 -1.717567,1.03054 -2.748107,2.87693 -0.987601,1.84638 -0.987601,4.12216 0,2.27578 0.987601,4.12216 1.03054,1.80344 2.748107,2.87692 1.760506,1.03054 3.907465,1.03054 z"
         style="font-style:normal;font-variant:normal;font-weight:bold;font-stretch:normal;font-family:Comfortaa;-inkscape-font-specification:'Comfortaa Bold';fill:#ffffff;stroke-width:0.26458332px"
         id="path969" />
      <path
         d="m 90.453737,258.48465 q 2.962802,0 5.324457,1.28818 2.361654,1.28817 3.692768,3.77864 1.331118,2.44754 1.331118,5.92561 v 10.56303 q 0,0.94467 -0.64409,1.58875 -0.601149,0.60115 -1.545811,0.60115 -0.944662,0 -1.588749,-0.60115 -0.601149,-0.64408 -0.601149,-1.58875 v -10.56303 q 0,-3.47807 -1.889323,-5.23858 -1.846385,-1.80345 -4.938005,-1.80345 -1.803445,0 -3.306316,0.72997 -1.459932,0.72997 -2.318715,1.9752 -0.815845,1.24524 -0.815845,2.79105 v 12.10884 q 0,0.94467 -0.601148,1.58875 -0.601148,0.60115 -1.588749,0.60115 -0.944662,0 -1.58875,-0.60115 -0.601148,-0.64408 -0.601148,-1.58875 v -19.15087 q 0,-0.9876 0.601148,-1.58875 0.644088,-0.60114 1.58875,-0.60114 0.987601,0 1.588749,0.60114 0.601148,0.60115 0.601148,1.58875 v 0.47233 q 1.374054,-1.37405 3.263377,-2.10401 1.889324,-0.77291 4.036283,-0.77291 z"
         style="font-style:normal;font-variant:normal;font-weight:bold;font-stretch:normal;font-family:Comfortaa;-inkscape-font-specification:'Comfortaa Bold';fill:#ffffff;stroke-width:0.26458332px"
         id="path971" />
      <path
         d="m 118.69228,258.52759 q 3.39219,0 6.05442,1.54581 2.70517,1.50287 4.20804,4.20804 1.54581,2.70517 1.54581,6.18324 v 9.27486 q 0,3.39219 -1.50287,6.18324 -1.50287,2.79105 -4.25098,4.3798 -2.70517,1.63168 -6.1403,1.63168 -3.09162,0 -5.75385,-1.24523 -2.66223,-1.2023 -4.46567,-3.47807 -0.47233,-0.60115 -0.47233,-1.2023 0,-0.90172 0.90172,-1.54581 0.60115,-0.38645 1.2023,-0.38645 1.07347,0 1.7605,0.90172 1.15936,1.50287 2.91986,2.27577 1.76051,0.81585 3.99335,0.81585 2.10402,0 3.82158,-1.03054 1.71757,-0.9876 2.74811,-2.9628 1.03054,-1.93227 1.03054,-4.63743 v -2.10402 q -1.33111,2.36165 -3.52101,3.69277 -2.1899,1.33111 -4.93801,1.33111 -3.17749,0 -5.71091,-1.50287 -2.49047,-1.54581 -3.90746,-4.25098 -1.37405,-2.70517 -1.37405,-6.1403 0,-3.47807 1.50287,-6.18324 1.50287,-2.70517 4.20804,-4.20804 2.70516,-1.54581 6.1403,-1.54581 z m 0,19.96671 q 2.1899,0 3.90746,-1.03054 1.76051,-1.03054 2.70517,-2.83398 0.9876,-1.84639 0.9876,-4.1651 0,-2.31872 -0.9876,-4.1651 -0.94466,-1.84638 -2.70517,-2.87692 -1.71756,-1.03055 -3.90746,-1.03055 -2.1899,0 -3.95041,1.03055 -1.71756,1.03054 -2.70516,2.87692 -0.9876,1.84638 -0.9876,4.1651 0,2.31871 0.9876,4.1651 0.9876,1.80344 2.70516,2.83398 1.76051,1.03054 3.95041,1.03054 z"
         style="font-style:normal;font-variant:normal;font-weight:bold;font-stretch:normal;font-family:Comfortaa;-inkscape-font-specification:'Comfortaa Bold';fill:#ffffff;stroke-width:0.26458332px"
         id="path973" />
    </g>
  </g>
</svg>
